<?xml version="1.0" encoding="UTF-8"?>
<svg width="149px" height="151px" viewBox="0 0 149 151" version="1.1" xmlns="http://www.w3.org/2000/svg" xmlns:xlink="http://www.w3.org/1999/xlink">
    <g id="SharedStreets_symbol" stroke="none" stroke-width="1" fill="none" fill-rule="evenodd">
        <g>
            <g>
                <path d="M122.2849,30.699 C122.2849,37.602 116.6879,43.199 109.7849,43.199 L86.7819,43.199 L96.5189,60.065 L131.1599,60.065 L148.4809,30.065 L131.1599,0.065 L96.5189,0.065 L86.0499,18.199 L109.7849,18.199 C116.6879,18.199 122.2849,23.796 122.2849,30.699" fill="#2132FC"></path>
                <path d="M22.2019,120.1697 C22.2019,113.2667 27.7989,107.6697 34.7019,107.6697 L57.2679,107.6697 C52.5259,97.3477 42.1039,90.1747 29.9999,90.1747 C13.4309,90.1747 -0.0001,103.6067 -0.0001,120.1747 C-0.0001,136.7437 13.4309,150.1747 29.9999,150.1747 C42.1079,150.1747 52.5339,142.9977 57.2729,132.6697 L34.7019,132.6697 C27.7989,132.6697 22.2019,127.0727 22.2019,120.1697" id="Fill-4" fill="#F83F45"></path>
                <path d="M88.5164,125.1697 L34.7024,125.1697 C31.9404,125.1697 29.7024,122.9317 29.7024,120.1697 C29.7024,117.4077 31.9404,115.1697 34.7024,115.1697 L88.5164,115.1697 C97.4874,115.1697 104.7854,107.3787 104.7854,97.8017 C104.7854,88.2257 97.4874,80.4347 88.5164,80.4347 L55.9714,80.4347 C41.4864,80.4347 29.7024,68.1567 29.7024,53.0657 C29.7024,37.9767 41.4864,25.6987 55.9714,25.6987 L109.7854,25.6987 C112.5464,25.6987 114.7854,27.9377 114.7854,30.6987 C114.7854,33.4607 112.5464,35.6987 109.7854,35.6987 L55.9714,35.6987 C47.0004,35.6987 39.7024,43.4897 39.7024,53.0657 C39.7024,62.6437 47.0004,70.4347 55.9714,70.4347 L88.5164,70.4347 C103.0004,70.4347 114.7854,82.7117 114.7854,97.8017 C114.7854,112.8927 103.0004,125.1697 88.5164,125.1697" fill="#000000"></path>
            </g>
        </g>
    </g>
</svg>